<svg id="Calque_1" data-name="Calque 1" xmlns="http://www.w3.org/2000/svg" viewBox="0 0 622.91 258.27"><defs><style>.cls-1{fill:#fff;}.cls-2{fill:#fdfdfd;}.cls-3{fill:none;}</style></defs><path class="cls-1" d="M148.46,101.67,127.37,89.41a16.14,16.14,0,0,0-16.27,0L90,101.67a16.35,16.35,0,0,0-8.13,14.17v24.52A16.37,16.37,0,0,0,90,154.53l21.09,12.26a16.2,16.2,0,0,0,16.27,0l21.09-12.26a16.37,16.37,0,0,0,8.13-14.17V115.84A16.35,16.35,0,0,0,148.46,101.67ZM148,140.36a7.73,7.73,0,0,1-3.82,6.65l-21.1,12.26a7.64,7.64,0,0,1-7.63,0L94.32,147a7.73,7.73,0,0,1-3.82-6.65V115.84a7.71,7.71,0,0,1,3.82-6.65l21.1-12.26a7.58,7.58,0,0,1,7.63,0l21.1,12.26a7.71,7.71,0,0,1,3.82,6.65Z"/><path class="cls-2" d="M222.07,140.29c-.07.07-7.13,7.12-16.41,7.12-11.3,0-17.22-8.72-17.22-17.33,0-9.91,7.05-17.11,16.77-17.11,8.59,0,14.43,5.93,14.49,6l.65.67,7.13-11.07-.35-.42c-.3-.36-7.52-8.85-22.71-8.85-18.57,0-32,13-32,30.9s13.47,30.91,32,30.91c15.63,0,23.93-9.24,24.28-9.63l.34-.39-6.26-11.5Z"/><path class="cls-2" d="M260.33,99.29a39.27,39.27,0,0,0-23.06,7.28l-.48.38,6.11,11.58.7-.5c.07-.06,7.48-5.4,15.37-5.4,6.95,0,10.33,3.09,10.33,9.43l-1.17,0c-13,0-34.86,2.63-34.86,20.28,0,12.28,10.2,18.71,20.28,18.71a20.4,20.4,0,0,0,14.11-5.19,19.08,19.08,0,0,0,2.68-3c0,.42,0,.87,0,1.34v5.49H285V123C285,107.92,276,99.29,260.33,99.29ZM269.42,134c0,6.8-5.24,14.39-12.25,14.39-5.5,0-8-3.37-8-6.71,0-6.85,10-8.29,18.46-8.29h1.75Z"/><path class="cls-2" d="M331.27,99.85c-7.32,0-14,4.58-17.56,11.72V100.64H298.44v59.1h15.84V136.18a29.75,29.75,0,0,1,1.21-9.15c2.69-8.53,9.51-11.57,15-11.57a22.45,22.45,0,0,1,3.27.22l.86.13V100.2l-.61-.11A16.77,16.77,0,0,0,331.27,99.85Z"/><path class="cls-2" d="M375.21,99.29c-9.11,0-14.36,4.46-16.61,7,0-.77.07-1.71.07-2.76V78.05H342.83v81.69h15.05v-4c0-.66,0-1.27-.05-1.8a21.38,21.38,0,0,0,16.48,7.18c16,0,27.17-12.71,27.17-30.91C401.48,111.71,390.92,99.29,375.21,99.29Zm-3.39,48.23c-9.35,0-13.6-8.81-13.6-17,0-12.86,7.08-17.44,13.71-17.44,8.14,0,13.61,7,13.61,17.33S380,147.52,371.82,147.52Z"/><path class="cls-2" d="M439.93,99.29c-18.45,0-32.37,13.28-32.37,30.9s14,30.91,32.49,30.91,32.37-13.29,32.37-30.91S458.45,99.29,439.93,99.29Zm.12,48.12c-9.37,0-16.43-7.4-16.43-17.22S430.68,113,440.05,113s16.31,7.41,16.31,17.22S449.35,147.41,440.05,147.41Z"/><path class="cls-1" d="M517.42,99.29a23.1,23.1,0,0,0-19.73,10.07c0-.41,0-.85,0-1.31v-7.41H482.45v59.1h15.84V132.56a23.5,23.5,0,0,1,1-7.46c2.16-6.92,7.81-11.22,14.77-11.22,6,0,8.4,3.18,8.4,11v34.86h15.72v-37.8C538.16,106.91,531.18,99.29,517.42,99.29Z"/><path class="cls-3" d="M148.46,14.45,127.37,2.19a16.2,16.2,0,0,0-16.27,0L90,14.45a16.38,16.38,0,0,0-8.13,14.17V53.14A16.35,16.35,0,0,0,90,67.31L111.1,79.57a16.2,16.2,0,0,0,16.27,0l21.09-12.26a16.35,16.35,0,0,0,8.13-14.17V28.62A16.38,16.38,0,0,0,148.46,14.45ZM148,53.14a7.71,7.71,0,0,1-3.82,6.65l-21.1,12.26a7.58,7.58,0,0,1-7.63,0L94.32,59.79a7.71,7.71,0,0,1-3.82-6.65V28.62A7.73,7.73,0,0,1,94.32,22l21.1-12.26a7.58,7.58,0,0,1,7.63,0L144.15,22A7.73,7.73,0,0,1,148,28.62Z"/><path class="cls-3" d="M66.59,103.88,45.49,91.61a16.19,16.19,0,0,0-16.26,0L8.13,103.88A16.37,16.37,0,0,0,0,118.05v24.52a16.4,16.4,0,0,0,8.13,14.17L29.23,169a16.12,16.12,0,0,0,16.26,0l21.1-12.25a16.39,16.39,0,0,0,8.12-14.17V118.05A16.37,16.37,0,0,0,66.59,103.88Zm-.5,38.69a7.71,7.71,0,0,1-3.82,6.65l-21.1,12.25a7.58,7.58,0,0,1-7.63,0l-21.1-12.25a7.72,7.72,0,0,1-3.81-6.65V118.05a7.7,7.7,0,0,1,3.81-6.65l21.1-12.26a7.58,7.58,0,0,1,7.63,0l21.1,12.26a7.68,7.68,0,0,1,3.82,6.65Z"/><path class="cls-3" d="M148.46,191,127.37,178.7a16.2,16.2,0,0,0-16.27,0L90,191a16.35,16.35,0,0,0-8.13,14.17v24.52A16.37,16.37,0,0,0,90,243.82l21.09,12.26a16.2,16.2,0,0,0,16.27,0l21.09-12.26a16.37,16.37,0,0,0,8.13-14.17V205.13A16.35,16.35,0,0,0,148.46,191ZM148,229.65a7.73,7.73,0,0,1-3.82,6.65l-21.1,12.26a7.58,7.58,0,0,1-7.63,0L94.32,236.3a7.73,7.73,0,0,1-3.82-6.65V205.13a7.73,7.73,0,0,1,3.82-6.65l21.1-12.26a7.58,7.58,0,0,1,7.63,0l21.1,12.26a7.73,7.73,0,0,1,3.82,6.65Z"/><path class="cls-3" d="M614.78,103.88l-21.1-12.27a16.19,16.19,0,0,0-16.26,0l-21.1,12.27a16.37,16.37,0,0,0-8.13,14.17v24.52a16.4,16.4,0,0,0,8.13,14.17L577.42,169a16.12,16.12,0,0,0,16.26,0l21.1-12.25a16.4,16.4,0,0,0,8.13-14.17V118.05A16.37,16.37,0,0,0,614.78,103.88Zm-.5,38.69a7.72,7.72,0,0,1-3.81,6.65l-21.1,12.25a7.58,7.58,0,0,1-7.63,0l-21.1-12.25a7.71,7.71,0,0,1-3.82-6.65V118.05a7.68,7.68,0,0,1,3.82-6.65l21.1-12.26a7.58,7.58,0,0,1,7.63,0l21.1,12.26a7.7,7.7,0,0,1,3.81,6.65Z"/></svg>